<svg xmlns="http://www.w3.org/2000/svg" width="6.333in" height="3.733in" viewBox="0 0 1900 1120">
<rect width="1900" height="1120" fill="#FFFFFF"/>
<style>
text { font-family: Arial, Helvetica, sans-serif; fill: #1F2933; }
.axis { font-size: 23px; fill: #2F3A45; }
.tick { font-size: 21px; fill: #425466; }
.label { font-size: 22px; fill: #2F3A45; }
.value { font-size: 21px; fill: #1F2933; font-weight: 700; }
.legend-title { font-size: 24px; font-weight: 700; }
.legend { font-size: 22px; fill: #273444; }
</style>
<line x1="175" x2="1445" y1="950.00" y2="950.00" stroke="#E5E7EB" stroke-width="2"/>
<text class="tick" x="157.00" y="957.00" text-anchor="end">0</text>
<line x1="175" x2="1445" y1="668.33" y2="668.33" stroke="#E5E7EB" stroke-width="2"/>
<text class="tick" x="157.00" y="675.33" text-anchor="end">50</text>
<line x1="175" x2="1445" y1="386.67" y2="386.67" stroke="#E5E7EB" stroke-width="2"/>
<text class="tick" x="157.00" y="393.67" text-anchor="end">100</text>
<line x1="175" x2="1445" y1="105.00" y2="105.00" stroke="#E5E7EB" stroke-width="2"/>
<text class="tick" x="157.00" y="112.00" text-anchor="end">150</text>
<line x1="175" x2="1445" y1="950" y2="950" stroke="#2F3A45" stroke-width="3"/>
<line x1="175" x2="175" y1="105" y2="950" stroke="#2F3A45" stroke-width="3"/>
<text class="axis" x="60.00" y="527.50" text-anchor="middle" transform="rotate(-90.00 60.00 527.50)">Average CPU utilization (%)</text>
<rect x="224.40" y="268.96" width="112.00" height="681.04" fill="#0072B2" rx="5"/>
<rect x="255.13" y="223.46" width="50.54" height="31.00" rx="5" fill="#FFFFFF" stroke="#D7DEE8" stroke-width="1.2" opacity="0.95"/>
<text x="280.40" y="246.52" text-anchor="middle" font-size="21" font-weight="700" fill="#1F2933">121</text>
<text class="tick" x="280.40" y="992.00" text-anchor="middle">
<tspan x="280.40" dy="0">Falcon-Precomp.</tspan>
<tspan x="280.40" dy="26">512</tspan>
</text>
<rect x="489.20" y="361.41" width="112.00" height="588.59" fill="#E69F00" rx="5"/>
<rect x="519.93" y="315.91" width="50.54" height="31.00" rx="5" fill="#FFFFFF" stroke="#D7DEE8" stroke-width="1.2" opacity="0.95"/>
<text x="545.20" y="338.97" text-anchor="middle" font-size="21" font-weight="700" fill="#1F2933">104</text>
<text class="tick" x="545.20" y="992.00" text-anchor="middle">
<tspan x="545.20" dy="0">Falcon</tspan>
<tspan x="545.20" dy="26">512</tspan>
</text>
<rect x="754.00" y="299.65" width="112.00" height="650.35" fill="#009E73" rx="5"/>
<rect x="784.73" y="254.15" width="50.54" height="31.00" rx="5" fill="#FFFFFF" stroke="#D7DEE8" stroke-width="1.2" opacity="0.95"/>
<text x="810.00" y="277.21" text-anchor="middle" font-size="21" font-weight="700" fill="#1F2933">115</text>
<text class="tick" x="810.00" y="992.00" text-anchor="middle">
<tspan x="810.00" dy="0">ML-DSA</tspan>
<tspan x="810.00" dy="26">44</tspan>
</text>
<rect x="1018.80" y="617.18" width="112.00" height="332.82" fill="#CC79A7" rx="5"/>
<rect x="1043.44" y="571.68" width="62.72" height="31.00" rx="5" fill="#FFFFFF" stroke="#D7DEE8" stroke-width="1.2" opacity="0.95"/>
<text x="1074.80" y="594.74" text-anchor="middle" font-size="21" font-weight="700" fill="#1F2933">59.1</text>
<text class="tick" x="1074.80" y="992.00" text-anchor="middle">
<tspan x="1074.80" dy="0">SLH-DSA</tspan>
<tspan x="1074.80" dy="26">128f</tspan>
</text>
<rect x="1283.60" y="667.41" width="112.00" height="282.59" fill="#D55E00" rx="5"/>
<rect x="1308.24" y="621.91" width="62.72" height="31.00" rx="5" fill="#FFFFFF" stroke="#D7DEE8" stroke-width="1.2" opacity="0.95"/>
<text x="1339.60" y="644.97" text-anchor="middle" font-size="21" font-weight="700" fill="#1F2933">50.2</text>
<text class="tick" x="1339.60" y="992.00" text-anchor="middle">
<tspan x="1339.60" dy="0">SLH-DSA</tspan>
<tspan x="1339.60" dy="26">128s</tspan>
</text>
<text class="legend-title" x="1515.00" y="123.00" text-anchor="start">Algorithm</text>
<rect x="1515" y="147" width="26" height="26" rx="3" fill="#0072B2"/>
<text class="legend" x="1557.00" y="168.00" text-anchor="start">Falcon-Precomp. 512</text>
<rect x="1515" y="189" width="26" height="26" rx="3" fill="#E69F00"/>
<text class="legend" x="1557.00" y="210.00" text-anchor="start">Falcon-512</text>
<rect x="1515" y="231" width="26" height="26" rx="3" fill="#009E73"/>
<text class="legend" x="1557.00" y="252.00" text-anchor="start">ML-DSA-44</text>
<rect x="1515" y="273" width="26" height="26" rx="3" fill="#CC79A7"/>
<text class="legend" x="1557.00" y="294.00" text-anchor="start">SLH-DSA-128f</text>
<rect x="1515" y="315" width="26" height="26" rx="3" fill="#D55E00"/>
<text class="legend" x="1557.00" y="336.00" text-anchor="start">SLH-DSA-128s</text>
</svg>
