<svg xmlns="http://www.w3.org/2000/svg" width="6.333in" height="3.733in" viewBox="0 0 1900 1120">
<rect width="1900" height="1120" fill="#FFFFFF"/>
<style>
text { font-family: Arial, Helvetica, sans-serif; fill: #1F2933; }
.axis { font-size: 23px; fill: #2F3A45; }
.tick { font-size: 21px; fill: #425466; }
.label { font-size: 22px; fill: #2F3A45; }
.value { font-size: 21px; fill: #1F2933; font-weight: 700; }
.legend-title { font-size: 24px; font-weight: 700; }
.legend { font-size: 22px; fill: #273444; }
</style>
<line x1="175" x2="1445" y1="950.00" y2="950.00" stroke="#E5E7EB" stroke-width="2"/>
<text class="tick" x="157.00" y="957.00" text-anchor="end">10</text>
<line x1="175" x2="1445" y1="865.21" y2="865.21" stroke="#E5E7EB" stroke-width="2"/>
<text class="tick" x="157.00" y="872.21" text-anchor="end">20</text>
<line x1="175" x2="1445" y1="753.12" y2="753.12" stroke="#E5E7EB" stroke-width="2"/>
<text class="tick" x="157.00" y="760.12" text-anchor="end">50</text>
<line x1="175" x2="1445" y1="668.33" y2="668.33" stroke="#E5E7EB" stroke-width="2"/>
<text class="tick" x="157.00" y="675.33" text-anchor="end">100</text>
<line x1="175" x2="1445" y1="583.54" y2="583.54" stroke="#E5E7EB" stroke-width="2"/>
<text class="tick" x="157.00" y="590.54" text-anchor="end">200</text>
<line x1="175" x2="1445" y1="471.46" y2="471.46" stroke="#E5E7EB" stroke-width="2"/>
<text class="tick" x="157.00" y="478.46" text-anchor="end">500</text>
<line x1="175" x2="1445" y1="386.67" y2="386.67" stroke="#E5E7EB" stroke-width="2"/>
<text class="tick" x="157.00" y="393.67" text-anchor="end">1000</text>
<line x1="175" x2="1445" y1="301.88" y2="301.88" stroke="#E5E7EB" stroke-width="2"/>
<text class="tick" x="157.00" y="308.88" text-anchor="end">2000</text>
<line x1="175" x2="1445" y1="189.79" y2="189.79" stroke="#E5E7EB" stroke-width="2"/>
<text class="tick" x="157.00" y="196.79" text-anchor="end">5000</text>
<line x1="175" x2="1445" y1="105.00" y2="105.00" stroke="#E5E7EB" stroke-width="2"/>
<text class="tick" x="157.00" y="112.00" text-anchor="end">10000</text>
<line x1="175" x2="1445" y1="950" y2="950" stroke="#2F3A45" stroke-width="3"/>
<line x1="175" x2="175" y1="105" y2="950" stroke="#2F3A45" stroke-width="3"/>
<text class="axis" x="60.00" y="527.50" text-anchor="middle" transform="rotate(-90.00 60.00 527.50)">Average latency (ms, log10)</text>
<line x1="175.00" x2="175.00" y1="105" y2="950" stroke="#E5E7EB" stroke-width="1.5"/>
<text class="tick" x="175.00" y="995.00" text-anchor="middle">10</text>
<line x1="810.00" x2="810.00" y1="105" y2="950" stroke="#E5E7EB" stroke-width="1.5"/>
<text class="tick" x="810.00" y="995.00" text-anchor="middle">30</text>
<line x1="1445.00" x2="1445.00" y1="105" y2="950" stroke="#E5E7EB" stroke-width="1.5"/>
<text class="tick" x="1445.00" y="995.00" text-anchor="middle">50</text>
<text class="axis" x="810.00" y="1048.00" text-anchor="middle">Concurrent virtual users (VUs)</text>
<path d="M 175.00 842.29 L 810.00 851.92 L 1445.00 838.50" fill="none" stroke="#0072B2" stroke-width="6" stroke-linejoin="round" stroke-linecap="round"/>
<circle cx="175.00" cy="842.29" r="10" fill="#0072B2" stroke="#FFFFFF" stroke-width="4"/>
<circle cx="810.00" cy="851.92" r="10" fill="#0072B2" stroke="#FFFFFF" stroke-width="4"/>
<circle cx="1445.00" cy="838.50" r="10" fill="#0072B2" stroke="#FFFFFF" stroke-width="4"/>
<path d="M 175.00 836.35 L 810.00 784.24 L 1445.00 827.85" fill="none" stroke="#E69F00" stroke-width="6" stroke-linejoin="round" stroke-linecap="round"/>
<circle cx="175.00" cy="836.35" r="10" fill="#E69F00" stroke="#FFFFFF" stroke-width="4"/>
<circle cx="810.00" cy="784.24" r="10" fill="#E69F00" stroke="#FFFFFF" stroke-width="4"/>
<circle cx="1445.00" cy="827.85" r="10" fill="#E69F00" stroke="#FFFFFF" stroke-width="4"/>
<path d="M 175.00 818.73 L 810.00 827.78 L 1445.00 809.40" fill="none" stroke="#009E73" stroke-width="6" stroke-linejoin="round" stroke-linecap="round"/>
<circle cx="175.00" cy="818.73" r="10" fill="#009E73" stroke="#FFFFFF" stroke-width="4"/>
<circle cx="810.00" cy="827.78" r="10" fill="#009E73" stroke="#FFFFFF" stroke-width="4"/>
<circle cx="1445.00" cy="809.40" r="10" fill="#009E73" stroke="#FFFFFF" stroke-width="4"/>
<path d="M 175.00 649.04 L 810.00 530.85 L 1445.00 628.36" fill="none" stroke="#CC79A7" stroke-width="6" stroke-linejoin="round" stroke-linecap="round"/>
<circle cx="175.00" cy="649.04" r="10" fill="#CC79A7" stroke="#FFFFFF" stroke-width="4"/>
<circle cx="810.00" cy="530.85" r="10" fill="#CC79A7" stroke="#FFFFFF" stroke-width="4"/>
<circle cx="1445.00" cy="628.36" r="10" fill="#CC79A7" stroke="#FFFFFF" stroke-width="4"/>
<path d="M 175.00 407.94 L 810.00 251.40 L 1445.00 204.66" fill="none" stroke="#D55E00" stroke-width="6" stroke-linejoin="round" stroke-linecap="round"/>
<circle cx="175.00" cy="407.94" r="10" fill="#D55E00" stroke="#FFFFFF" stroke-width="4"/>
<circle cx="810.00" cy="251.40" r="10" fill="#D55E00" stroke="#FFFFFF" stroke-width="4"/>
<circle cx="1445.00" cy="204.66" r="10" fill="#D55E00" stroke="#FFFFFF" stroke-width="4"/>
<rect x="179.00" y="363.94" width="45.32" height="28.00" rx="5" fill="#FFFFFF" stroke="#D7DEE8" stroke-width="1.2" opacity="0.95"/>
<text x="201.66" y="384.42" text-anchor="middle" font-size="18" font-weight="700" fill="#1F2933">840</text>
<rect x="179.00" y="605.04" width="45.32" height="28.00" rx="5" fill="#FFFFFF" stroke="#D7DEE8" stroke-width="1.2" opacity="0.95"/>
<text x="201.66" y="625.52" text-anchor="middle" font-size="18" font-weight="700" fill="#1F2933">117</text>
<rect x="179.00" y="774.73" width="55.76" height="28.00" rx="5" fill="#FFFFFF" stroke="#D7DEE8" stroke-width="1.2" opacity="0.95"/>
<text x="206.88" y="795.21" text-anchor="middle" font-size="18" font-weight="700" fill="#1F2933">29.2</text>
<rect x="179.00" y="852.35" width="55.76" height="28.00" rx="5" fill="#FFFFFF" stroke="#D7DEE8" stroke-width="1.2" opacity="0.95"/>
<text x="206.88" y="872.83" text-anchor="middle" font-size="18" font-weight="700" fill="#1F2933">25.3</text>
<rect x="179.00" y="884.29" width="55.76" height="28.00" rx="5" fill="#FFFFFF" stroke="#D7DEE8" stroke-width="1.2" opacity="0.95"/>
<text x="206.88" y="904.77" text-anchor="middle" font-size="18" font-weight="700" fill="#1F2933">24.1</text>
<rect x="782.12" y="207.40" width="55.76" height="28.00" rx="5" fill="#FFFFFF" stroke="#D7DEE8" stroke-width="1.2" opacity="0.95"/>
<text x="810.00" y="227.88" text-anchor="middle" font-size="18" font-weight="700" fill="#1F2933">3022</text>
<rect x="787.34" y="486.85" width="45.32" height="28.00" rx="5" fill="#FFFFFF" stroke="#D7DEE8" stroke-width="1.2" opacity="0.95"/>
<text x="810.00" y="507.33" text-anchor="middle" font-size="18" font-weight="700" fill="#1F2933">308</text>
<rect x="782.12" y="740.24" width="55.76" height="28.00" rx="5" fill="#FFFFFF" stroke="#D7DEE8" stroke-width="1.2" opacity="0.95"/>
<text x="810.00" y="760.72" text-anchor="middle" font-size="18" font-weight="700" fill="#1F2933">38.8</text>
<rect x="782.12" y="783.78" width="55.76" height="28.00" rx="5" fill="#FFFFFF" stroke="#D7DEE8" stroke-width="1.2" opacity="0.95"/>
<text x="810.00" y="804.26" text-anchor="middle" font-size="18" font-weight="700" fill="#1F2933">27.2</text>
<rect x="782.12" y="867.92" width="55.76" height="28.00" rx="5" fill="#FFFFFF" stroke="#D7DEE8" stroke-width="1.2" opacity="0.95"/>
<text x="810.00" y="888.40" text-anchor="middle" font-size="18" font-weight="700" fill="#1F2933">22.3</text>
<rect x="1385.24" y="160.66" width="55.76" height="28.00" rx="5" fill="#FFFFFF" stroke="#D7DEE8" stroke-width="1.2" opacity="0.95"/>
<text x="1413.12" y="181.14" text-anchor="middle" font-size="18" font-weight="700" fill="#1F2933">4428</text>
<rect x="1395.68" y="584.36" width="45.32" height="28.00" rx="5" fill="#FFFFFF" stroke="#D7DEE8" stroke-width="1.2" opacity="0.95"/>
<text x="1418.34" y="604.84" text-anchor="middle" font-size="18" font-weight="700" fill="#1F2933">139</text>
<rect x="1385.24" y="765.40" width="55.76" height="28.00" rx="5" fill="#FFFFFF" stroke="#D7DEE8" stroke-width="1.2" opacity="0.95"/>
<text x="1413.12" y="785.88" text-anchor="middle" font-size="18" font-weight="700" fill="#1F2933">31.6</text>
<rect x="1385.24" y="843.85" width="55.76" height="28.00" rx="5" fill="#FFFFFF" stroke="#D7DEE8" stroke-width="1.2" opacity="0.95"/>
<text x="1413.12" y="864.33" text-anchor="middle" font-size="18" font-weight="700" fill="#1F2933">27.1</text>
<rect x="1385.24" y="794.50" width="55.76" height="28.00" rx="5" fill="#FFFFFF" stroke="#D7DEE8" stroke-width="1.2" opacity="0.95"/>
<text x="1413.12" y="814.98" text-anchor="middle" font-size="18" font-weight="700" fill="#1F2933">24.9</text>
<text class="legend-title" x="1515.00" y="123.00" text-anchor="start">Algorithm</text>
<rect x="1515" y="147" width="26" height="26" rx="3" fill="#0072B2"/>
<text class="legend" x="1557.00" y="168.00" text-anchor="start">Falcon-Precomp. 512</text>
<rect x="1515" y="189" width="26" height="26" rx="3" fill="#E69F00"/>
<text class="legend" x="1557.00" y="210.00" text-anchor="start">Falcon-512</text>
<rect x="1515" y="231" width="26" height="26" rx="3" fill="#009E73"/>
<text class="legend" x="1557.00" y="252.00" text-anchor="start">ML-DSA-44</text>
<rect x="1515" y="273" width="26" height="26" rx="3" fill="#CC79A7"/>
<text class="legend" x="1557.00" y="294.00" text-anchor="start">SLH-DSA-128f</text>
<rect x="1515" y="315" width="26" height="26" rx="3" fill="#D55E00"/>
<text class="legend" x="1557.00" y="336.00" text-anchor="start">SLH-DSA-128s</text>
</svg>
