<svg xmlns="http://www.w3.org/2000/svg" width="6.333in" height="3.733in" viewBox="0 0 1900 1120">
<rect width="1900" height="1120" fill="#FFFFFF"/>
<style>
text { font-family: Arial, Helvetica, sans-serif; fill: #1F2933; }
.axis { font-size: 23px; fill: #2F3A45; }
.tick { font-size: 21px; fill: #425466; }
.label { font-size: 22px; fill: #2F3A45; }
.value { font-size: 21px; fill: #1F2933; font-weight: 700; }
.legend-title { font-size: 24px; font-weight: 700; }
.legend { font-size: 22px; fill: #273444; }
</style>
<line x1="430.00" x2="430.00" y1="115" y2="950" stroke="#E5E7EB" stroke-width="2"/>
<text class="tick" x="430.00" y="994.00" text-anchor="middle">0</text>
<line x1="728.75" x2="728.75" y1="115" y2="950" stroke="#E5E7EB" stroke-width="2"/>
<text class="tick" x="728.75" y="994.00" text-anchor="middle">25</text>
<line x1="1027.50" x2="1027.50" y1="115" y2="950" stroke="#E5E7EB" stroke-width="2"/>
<text class="tick" x="1027.50" y="994.00" text-anchor="middle">50</text>
<line x1="1326.25" x2="1326.25" y1="115" y2="950" stroke="#E5E7EB" stroke-width="2"/>
<text class="tick" x="1326.25" y="994.00" text-anchor="middle">75</text>
<line x1="1625.00" x2="1625.00" y1="115" y2="950" stroke="#E5E7EB" stroke-width="2"/>
<text class="tick" x="1625.00" y="994.00" text-anchor="middle">100</text>
<line x1="430" x2="1625" y1="950" y2="950" stroke="#2F3A45" stroke-width="3"/>
<line x1="430" x2="430" y1="115" y2="950" stroke="#2F3A45" stroke-width="3"/>
<text class="axis" x="1027.50" y="1048.00" text-anchor="middle">Block rate (%)</text>
<text class="tick" x="404.00" y="183.54" text-anchor="end">#1 Signature Tampering</text>
<rect x="430" y="152.54" width="1195.00" height="46.00" fill="#009E73" rx="5"/>
<rect x="1558.28" y="160.04" width="62.72" height="31.00" rx="5" fill="#FFFFFF" stroke="#D7DEE8" stroke-width="1.2" opacity="0.95"/>
<text x="1589.64" y="183.10" text-anchor="middle" font-size="21" font-weight="700" fill="#1F2933">100%</text>
<text class="tick" x="404.00" y="287.91" text-anchor="end">#2 Token Forgery</text>
<rect x="430" y="256.91" width="1195.00" height="46.00" fill="#009E73" rx="5"/>
<rect x="1558.28" y="264.41" width="62.72" height="31.00" rx="5" fill="#FFFFFF" stroke="#D7DEE8" stroke-width="1.2" opacity="0.95"/>
<text x="1589.64" y="287.47" text-anchor="middle" font-size="21" font-weight="700" fill="#1F2933">100%</text>
<text class="tick" x="404.00" y="392.29" text-anchor="end">#3 Algorithm Confusion</text>
<rect x="430" y="361.29" width="1195.00" height="46.00" fill="#009E73" rx="5"/>
<rect x="1558.28" y="368.79" width="62.72" height="31.00" rx="5" fill="#FFFFFF" stroke="#D7DEE8" stroke-width="1.2" opacity="0.95"/>
<text x="1589.64" y="391.85" text-anchor="middle" font-size="21" font-weight="700" fill="#1F2933">100%</text>
<text class="tick" x="404.00" y="496.66" text-anchor="end">#4 None Algorithm Attack</text>
<rect x="430" y="465.66" width="1195.00" height="46.00" fill="#009E73" rx="5"/>
<rect x="1558.28" y="473.16" width="62.72" height="31.00" rx="5" fill="#FFFFFF" stroke="#D7DEE8" stroke-width="1.2" opacity="0.95"/>
<text x="1589.64" y="496.22" text-anchor="middle" font-size="21" font-weight="700" fill="#1F2933">100%</text>
<text class="tick" x="404.00" y="601.04" text-anchor="end">#5 Payload Manipulation</text>
<rect x="430" y="570.04" width="1195.00" height="46.00" fill="#009E73" rx="5"/>
<rect x="1558.28" y="577.54" width="62.72" height="31.00" rx="5" fill="#FFFFFF" stroke="#D7DEE8" stroke-width="1.2" opacity="0.95"/>
<text x="1589.64" y="600.60" text-anchor="middle" font-size="21" font-weight="700" fill="#1F2933">100%</text>
<text class="tick" x="404.00" y="705.41" text-anchor="end">#6 Expired Token Abuse</text>
<rect x="430" y="674.41" width="1195.00" height="46.00" fill="#009E73" rx="5"/>
<rect x="1558.28" y="681.91" width="62.72" height="31.00" rx="5" fill="#FFFFFF" stroke="#D7DEE8" stroke-width="1.2" opacity="0.95"/>
<text x="1589.64" y="704.97" text-anchor="middle" font-size="21" font-weight="700" fill="#1F2933">100%</text>
<text class="tick" x="404.00" y="809.79" text-anchor="end">#7 Missing Signature</text>
<rect x="430" y="778.79" width="1195.00" height="46.00" fill="#009E73" rx="5"/>
<rect x="1558.28" y="786.29" width="62.72" height="31.00" rx="5" fill="#FFFFFF" stroke="#D7DEE8" stroke-width="1.2" opacity="0.95"/>
<text x="1589.64" y="809.35" text-anchor="middle" font-size="21" font-weight="700" fill="#1F2933">100%</text>
<text class="tick" x="404.00" y="914.16" text-anchor="end">#8 Cross-Algorithm Injection</text>
<rect x="430" y="883.16" width="1195.00" height="46.00" fill="#009E73" rx="5"/>
<rect x="1558.28" y="890.66" width="62.72" height="31.00" rx="5" fill="#FFFFFF" stroke="#D7DEE8" stroke-width="1.2" opacity="0.95"/>
<text x="1589.64" y="913.72" text-anchor="middle" font-size="21" font-weight="700" fill="#1F2933">100%</text>
<text class="legend-title" x="1690.00" y="125.00" text-anchor="start">Legend</text>
<rect x="1690" y="149" width="26" height="26" rx="3" fill="#009E73"/>
<text class="legend" x="1732.00" y="172.00" text-anchor="start">Blocked request rate</text>
</svg>
