<svg xmlns="http://www.w3.org/2000/svg" width="6.333in" height="3.733in" viewBox="0 0 1900 1120">
<rect width="1900" height="1120" fill="#FFFFFF"/>
<style>
text { font-family: Arial, Helvetica, sans-serif; fill: #1F2933; }
.axis { font-size: 23px; fill: #2F3A45; }
.tick { font-size: 21px; fill: #425466; }
.label { font-size: 22px; fill: #2F3A45; }
.value { font-size: 21px; fill: #1F2933; font-weight: 700; }
.legend-title { font-size: 24px; font-weight: 700; }
.legend { font-size: 22px; fill: #273444; }
</style>
<line x1="175" x2="1445" y1="950.00" y2="950.00" stroke="#E5E7EB" stroke-width="2"/>
<text class="tick" x="157.00" y="957.00" text-anchor="end">0</text>
<line x1="175" x2="1445" y1="738.75" y2="738.75" stroke="#E5E7EB" stroke-width="2"/>
<text class="tick" x="157.00" y="745.75" text-anchor="end">1</text>
<line x1="175" x2="1445" y1="527.50" y2="527.50" stroke="#E5E7EB" stroke-width="2"/>
<text class="tick" x="157.00" y="534.50" text-anchor="end">2</text>
<line x1="175" x2="1445" y1="316.25" y2="316.25" stroke="#E5E7EB" stroke-width="2"/>
<text class="tick" x="157.00" y="323.25" text-anchor="end">3</text>
<line x1="175" x2="1445" y1="105.00" y2="105.00" stroke="#E5E7EB" stroke-width="2"/>
<text class="tick" x="157.00" y="112.00" text-anchor="end">4</text>
<line x1="175" x2="1445" y1="950" y2="950" stroke="#2F3A45" stroke-width="3"/>
<line x1="175" x2="175" y1="105" y2="950" stroke="#2F3A45" stroke-width="3"/>
<text class="axis" x="60.00" y="527.50" text-anchor="middle" transform="rotate(-90.00 60.00 527.50)">Average allocation (MB)</text>
<rect x="224.40" y="380.04" width="112.00" height="569.96" fill="#0072B2" rx="5"/>
<rect x="255.13" y="334.54" width="50.54" height="31.00" rx="5" fill="#FFFFFF" stroke="#D7DEE8" stroke-width="1.2" opacity="0.95"/>
<text x="280.40" y="357.60" text-anchor="middle" font-size="21" font-weight="700" fill="#1F2933">2.7</text>
<text class="tick" x="280.40" y="992.00" text-anchor="middle">
<tspan x="280.40" dy="0">Falcon-Precomp.</tspan>
<tspan x="280.40" dy="26">512</tspan>
</text>
<rect x="489.20" y="359.00" width="112.00" height="591.00" fill="#E69F00" rx="5"/>
<rect x="519.93" y="313.50" width="50.54" height="31.00" rx="5" fill="#FFFFFF" stroke="#D7DEE8" stroke-width="1.2" opacity="0.95"/>
<text x="545.20" y="336.56" text-anchor="middle" font-size="21" font-weight="700" fill="#1F2933">2.8</text>
<text class="tick" x="545.20" y="992.00" text-anchor="middle">
<tspan x="545.20" dy="0">Falcon</tspan>
<tspan x="545.20" dy="26">512</tspan>
</text>
<rect x="754.00" y="375.17" width="112.00" height="574.83" fill="#009E73" rx="5"/>
<rect x="778.64" y="329.67" width="62.72" height="31.00" rx="5" fill="#FFFFFF" stroke="#D7DEE8" stroke-width="1.2" opacity="0.95"/>
<text x="810.00" y="352.73" text-anchor="middle" font-size="21" font-weight="700" fill="#1F2933">2.72</text>
<text class="tick" x="810.00" y="992.00" text-anchor="middle">
<tspan x="810.00" dy="0">ML-DSA</tspan>
<tspan x="810.00" dy="26">44</tspan>
</text>
<rect x="1018.80" y="350.94" width="112.00" height="599.06" fill="#CC79A7" rx="5"/>
<rect x="1043.44" y="305.44" width="62.72" height="31.00" rx="5" fill="#FFFFFF" stroke="#D7DEE8" stroke-width="1.2" opacity="0.95"/>
<text x="1074.80" y="328.50" text-anchor="middle" font-size="21" font-weight="700" fill="#1F2933">2.84</text>
<text class="tick" x="1074.80" y="992.00" text-anchor="middle">
<tspan x="1074.80" dy="0">SLH-DSA</tspan>
<tspan x="1074.80" dy="26">128f</tspan>
</text>
<rect x="1283.60" y="304.97" width="112.00" height="645.03" fill="#D55E00" rx="5"/>
<rect x="1308.24" y="259.47" width="62.72" height="31.00" rx="5" fill="#FFFFFF" stroke="#D7DEE8" stroke-width="1.2" opacity="0.95"/>
<text x="1339.60" y="282.53" text-anchor="middle" font-size="21" font-weight="700" fill="#1F2933">3.05</text>
<text class="tick" x="1339.60" y="992.00" text-anchor="middle">
<tspan x="1339.60" dy="0">SLH-DSA</tspan>
<tspan x="1339.60" dy="26">128s</tspan>
</text>
<text class="legend-title" x="1515.00" y="123.00" text-anchor="start">Algorithm</text>
<rect x="1515" y="147" width="26" height="26" rx="3" fill="#0072B2"/>
<text class="legend" x="1557.00" y="168.00" text-anchor="start">Falcon-Precomp. 512</text>
<rect x="1515" y="189" width="26" height="26" rx="3" fill="#E69F00"/>
<text class="legend" x="1557.00" y="210.00" text-anchor="start">Falcon-512</text>
<rect x="1515" y="231" width="26" height="26" rx="3" fill="#009E73"/>
<text class="legend" x="1557.00" y="252.00" text-anchor="start">ML-DSA-44</text>
<rect x="1515" y="273" width="26" height="26" rx="3" fill="#CC79A7"/>
<text class="legend" x="1557.00" y="294.00" text-anchor="start">SLH-DSA-128f</text>
<rect x="1515" y="315" width="26" height="26" rx="3" fill="#D55E00"/>
<text class="legend" x="1557.00" y="336.00" text-anchor="start">SLH-DSA-128s</text>
</svg>
