<svg xmlns="http://www.w3.org/2000/svg" width="6.333in" height="3.733in" viewBox="0 0 1900 1120">
<rect width="1900" height="1120" fill="#FFFFFF"/>
<style>
text { font-family: Arial, Helvetica, sans-serif; fill: #1F2933; }
.axis { font-size: 23px; fill: #2F3A45; }
.tick { font-size: 21px; fill: #425466; }
.label { font-size: 22px; fill: #2F3A45; }
.value { font-size: 21px; fill: #1F2933; font-weight: 700; }
.legend-title { font-size: 24px; font-weight: 700; }
.legend { font-size: 22px; fill: #273444; }
</style>
<line x1="175" x2="1445" y1="950.00" y2="950.00" stroke="#E5E7EB" stroke-width="2"/>
<text class="tick" x="157.00" y="957.00" text-anchor="end">100</text>
<line x1="175" x2="1445" y1="865.21" y2="865.21" stroke="#E5E7EB" stroke-width="2"/>
<text class="tick" x="157.00" y="872.21" text-anchor="end">200</text>
<line x1="175" x2="1445" y1="753.12" y2="753.12" stroke="#E5E7EB" stroke-width="2"/>
<text class="tick" x="157.00" y="760.12" text-anchor="end">500</text>
<line x1="175" x2="1445" y1="668.33" y2="668.33" stroke="#E5E7EB" stroke-width="2"/>
<text class="tick" x="157.00" y="675.33" text-anchor="end">1000</text>
<line x1="175" x2="1445" y1="583.54" y2="583.54" stroke="#E5E7EB" stroke-width="2"/>
<text class="tick" x="157.00" y="590.54" text-anchor="end">2000</text>
<line x1="175" x2="1445" y1="471.46" y2="471.46" stroke="#E5E7EB" stroke-width="2"/>
<text class="tick" x="157.00" y="478.46" text-anchor="end">5000</text>
<line x1="175" x2="1445" y1="386.67" y2="386.67" stroke="#E5E7EB" stroke-width="2"/>
<text class="tick" x="157.00" y="393.67" text-anchor="end">10000</text>
<line x1="175" x2="1445" y1="301.88" y2="301.88" stroke="#E5E7EB" stroke-width="2"/>
<text class="tick" x="157.00" y="308.88" text-anchor="end">20000</text>
<line x1="175" x2="1445" y1="189.79" y2="189.79" stroke="#E5E7EB" stroke-width="2"/>
<text class="tick" x="157.00" y="196.79" text-anchor="end">50000</text>
<line x1="175" x2="1445" y1="105.00" y2="105.00" stroke="#E5E7EB" stroke-width="2"/>
<text class="tick" x="157.00" y="112.00" text-anchor="end">100000</text>
<line x1="175" x2="1445" y1="950" y2="950" stroke="#2F3A45" stroke-width="3"/>
<line x1="175" x2="175" y1="105" y2="950" stroke="#2F3A45" stroke-width="3"/>
<text class="axis" x="60.00" y="527.50" text-anchor="middle" transform="rotate(-90.00 60.00 527.50)">Average latency (ms, log10)</text>
<line x1="175.00" x2="175.00" y1="105" y2="950" stroke="#E5E7EB" stroke-width="1.5"/>
<text class="tick" x="175.00" y="995.00" text-anchor="middle">10</text>
<line x1="810.00" x2="810.00" y1="105" y2="950" stroke="#E5E7EB" stroke-width="1.5"/>
<text class="tick" x="810.00" y="995.00" text-anchor="middle">30</text>
<line x1="1445.00" x2="1445.00" y1="105" y2="950" stroke="#E5E7EB" stroke-width="1.5"/>
<text class="tick" x="1445.00" y="995.00" text-anchor="middle">50</text>
<text class="axis" x="810.00" y="1048.00" text-anchor="middle">Concurrent virtual users (VUs)</text>
<path d="M 175.00 949.85 L 810.00 733.47 L 1445.00 661.10" fill="none" stroke="#0072B2" stroke-width="6" stroke-linejoin="round" stroke-linecap="round"/>
<circle cx="175.00" cy="949.85" r="10" fill="#0072B2" stroke="#FFFFFF" stroke-width="4"/>
<circle cx="810.00" cy="733.47" r="10" fill="#0072B2" stroke="#FFFFFF" stroke-width="4"/>
<circle cx="1445.00" cy="661.10" r="10" fill="#0072B2" stroke="#FFFFFF" stroke-width="4"/>
<path d="M 175.00 939.29 L 810.00 790.78 L 1445.00 658.09" fill="none" stroke="#E69F00" stroke-width="6" stroke-linejoin="round" stroke-linecap="round"/>
<circle cx="175.00" cy="939.29" r="10" fill="#E69F00" stroke="#FFFFFF" stroke-width="4"/>
<circle cx="810.00" cy="790.78" r="10" fill="#E69F00" stroke="#FFFFFF" stroke-width="4"/>
<circle cx="1445.00" cy="658.09" r="10" fill="#E69F00" stroke="#FFFFFF" stroke-width="4"/>
<path d="M 175.00 937.44 L 810.00 722.01 L 1445.00 649.68" fill="none" stroke="#009E73" stroke-width="6" stroke-linejoin="round" stroke-linecap="round"/>
<circle cx="175.00" cy="937.44" r="10" fill="#009E73" stroke="#FFFFFF" stroke-width="4"/>
<circle cx="810.00" cy="722.01" r="10" fill="#009E73" stroke="#FFFFFF" stroke-width="4"/>
<circle cx="1445.00" cy="649.68" r="10" fill="#009E73" stroke="#FFFFFF" stroke-width="4"/>
<path d="M 175.00 802.65 L 810.00 658.98 L 1445.00 595.37" fill="none" stroke="#CC79A7" stroke-width="6" stroke-linejoin="round" stroke-linecap="round"/>
<circle cx="175.00" cy="802.65" r="10" fill="#CC79A7" stroke="#FFFFFF" stroke-width="4"/>
<circle cx="810.00" cy="658.98" r="10" fill="#CC79A7" stroke="#FFFFFF" stroke-width="4"/>
<circle cx="1445.00" cy="595.37" r="10" fill="#CC79A7" stroke="#FFFFFF" stroke-width="4"/>
<path d="M 175.00 549.79 L 810.00 423.17 L 1445.00 376.41" fill="none" stroke="#D55E00" stroke-width="6" stroke-linejoin="round" stroke-linecap="round"/>
<circle cx="175.00" cy="549.79" r="10" fill="#D55E00" stroke="#FFFFFF" stroke-width="4"/>
<circle cx="810.00" cy="423.17" r="10" fill="#D55E00" stroke="#FFFFFF" stroke-width="4"/>
<circle cx="1445.00" cy="376.41" r="10" fill="#D55E00" stroke="#FFFFFF" stroke-width="4"/>
<rect x="179.00" y="505.79" width="55.76" height="28.00" rx="5" fill="#FFFFFF" stroke="#D7DEE8" stroke-width="1.2" opacity="0.95"/>
<text x="206.88" y="526.27" text-anchor="middle" font-size="18" font-weight="700" fill="#1F2933">2635</text>
<rect x="179.00" y="758.65" width="45.32" height="28.00" rx="5" fill="#FFFFFF" stroke="#D7DEE8" stroke-width="1.2" opacity="0.95"/>
<text x="201.66" y="779.13" text-anchor="middle" font-size="18" font-weight="700" fill="#1F2933">334</text>
<rect x="179.00" y="893.44" width="45.32" height="28.00" rx="5" fill="#FFFFFF" stroke="#D7DEE8" stroke-width="1.2" opacity="0.95"/>
<text x="201.66" y="913.92" text-anchor="middle" font-size="18" font-weight="700" fill="#1F2933">111</text>
<rect x="224.34" y="918.00" width="45.32" height="28.00" rx="5" fill="#FFFFFF" stroke="#D7DEE8" stroke-width="1.2" opacity="0.95"/>
<text x="247.00" y="938.48" text-anchor="middle" font-size="18" font-weight="700" fill="#1F2933">109</text>
<rect x="179.00" y="918.00" width="45.32" height="28.00" rx="5" fill="#FFFFFF" stroke="#D7DEE8" stroke-width="1.2" opacity="0.95"/>
<text x="201.66" y="938.48" text-anchor="middle" font-size="18" font-weight="700" fill="#1F2933">100</text>
<rect x="782.12" y="379.17" width="55.76" height="28.00" rx="5" fill="#FFFFFF" stroke="#D7DEE8" stroke-width="1.2" opacity="0.95"/>
<text x="810.00" y="399.65" text-anchor="middle" font-size="18" font-weight="700" fill="#1F2933">7420</text>
<rect x="782.12" y="614.98" width="55.76" height="28.00" rx="5" fill="#FFFFFF" stroke="#D7DEE8" stroke-width="1.2" opacity="0.95"/>
<text x="810.00" y="635.46" text-anchor="middle" font-size="18" font-weight="700" fill="#1F2933">1079</text>
<rect x="787.34" y="678.01" width="45.32" height="28.00" rx="5" fill="#FFFFFF" stroke="#D7DEE8" stroke-width="1.2" opacity="0.95"/>
<text x="810.00" y="698.49" text-anchor="middle" font-size="18" font-weight="700" fill="#1F2933">645</text>
<rect x="787.34" y="749.47" width="45.32" height="28.00" rx="5" fill="#FFFFFF" stroke="#D7DEE8" stroke-width="1.2" opacity="0.95"/>
<text x="810.00" y="769.95" text-anchor="middle" font-size="18" font-weight="700" fill="#1F2933">587</text>
<rect x="787.34" y="806.78" width="45.32" height="28.00" rx="5" fill="#FFFFFF" stroke="#D7DEE8" stroke-width="1.2" opacity="0.95"/>
<text x="810.00" y="827.26" text-anchor="middle" font-size="18" font-weight="700" fill="#1F2933">368</text>
<rect x="1374.80" y="332.41" width="66.20" height="28.00" rx="5" fill="#FFFFFF" stroke="#D7DEE8" stroke-width="1.2" opacity="0.95"/>
<text x="1407.90" y="352.89" text-anchor="middle" font-size="18" font-weight="700" fill="#1F2933">10875</text>
<rect x="1385.24" y="551.37" width="55.76" height="28.00" rx="5" fill="#FFFFFF" stroke="#D7DEE8" stroke-width="1.2" opacity="0.95"/>
<text x="1413.12" y="571.85" text-anchor="middle" font-size="18" font-weight="700" fill="#1F2933">1816</text>
<rect x="1385.24" y="605.68" width="55.76" height="28.00" rx="5" fill="#FFFFFF" stroke="#D7DEE8" stroke-width="1.2" opacity="0.95"/>
<text x="1413.12" y="626.16" text-anchor="middle" font-size="18" font-weight="700" fill="#1F2933">1165</text>
<rect x="1385.24" y="674.09" width="55.76" height="28.00" rx="5" fill="#FFFFFF" stroke="#D7DEE8" stroke-width="1.2" opacity="0.95"/>
<text x="1413.12" y="694.57" text-anchor="middle" font-size="18" font-weight="700" fill="#1F2933">1087</text>
<rect x="1385.24" y="703.10" width="55.76" height="28.00" rx="5" fill="#FFFFFF" stroke="#D7DEE8" stroke-width="1.2" opacity="0.95"/>
<text x="1413.12" y="723.58" text-anchor="middle" font-size="18" font-weight="700" fill="#1F2933">1061</text>
<text class="legend-title" x="1515.00" y="123.00" text-anchor="start">Algorithm</text>
<rect x="1515" y="147" width="26" height="26" rx="3" fill="#0072B2"/>
<text class="legend" x="1557.00" y="168.00" text-anchor="start">Falcon-Precomp. 512</text>
<rect x="1515" y="189" width="26" height="26" rx="3" fill="#E69F00"/>
<text class="legend" x="1557.00" y="210.00" text-anchor="start">Falcon-512</text>
<rect x="1515" y="231" width="26" height="26" rx="3" fill="#009E73"/>
<text class="legend" x="1557.00" y="252.00" text-anchor="start">ML-DSA-44</text>
<rect x="1515" y="273" width="26" height="26" rx="3" fill="#CC79A7"/>
<text class="legend" x="1557.00" y="294.00" text-anchor="start">SLH-DSA-128f</text>
<rect x="1515" y="315" width="26" height="26" rx="3" fill="#D55E00"/>
<text class="legend" x="1557.00" y="336.00" text-anchor="start">SLH-DSA-128s</text>
</svg>
