<svg xmlns="http://www.w3.org/2000/svg" width="6.333in" height="3.733in" viewBox="0 0 1900 1120">
<rect width="1900" height="1120" fill="#FFFFFF"/>
<style>
text { font-family: Arial, Helvetica, sans-serif; fill: #1F2933; }
.subtitle { font-size: 24px; fill: #52616F; }
.axis { font-size: 23px; fill: #2F3A45; }
.tick { font-size: 21px; fill: #425466; }
.label { font-size: 22px; fill: #2F3A45; }
.value { font-size: 21px; fill: #1F2933; font-weight: 700; }
.legend-title { font-size: 24px; font-weight: 700; }
.legend { font-size: 22px; fill: #273444; }
.note { font-size: 19px; fill: #627084; }
</style>
<text class="subtitle" x="70" y="58">P95 clean token generation latency; n=100; warm-up=20. Light mode, single metric, consistent palette.</text>
<line x1="175" x2="1445" y1="950.00" y2="950.00" stroke="#E5E7EB" stroke-width="2"/>
<text class="tick" x="157.00" y="957.00" text-anchor="end">0.1</text>
<line x1="175" x2="1445" y1="886.41" y2="886.41" stroke="#E5E7EB" stroke-width="2"/>
<text class="tick" x="157.00" y="893.41" text-anchor="end">0.2</text>
<line x1="175" x2="1445" y1="802.34" y2="802.34" stroke="#E5E7EB" stroke-width="2"/>
<text class="tick" x="157.00" y="809.34" text-anchor="end">0.5</text>
<line x1="175" x2="1445" y1="738.75" y2="738.75" stroke="#E5E7EB" stroke-width="2"/>
<text class="tick" x="157.00" y="745.75" text-anchor="end">1</text>
<line x1="175" x2="1445" y1="675.16" y2="675.16" stroke="#E5E7EB" stroke-width="2"/>
<text class="tick" x="157.00" y="682.16" text-anchor="end">2</text>
<line x1="175" x2="1445" y1="591.09" y2="591.09" stroke="#E5E7EB" stroke-width="2"/>
<text class="tick" x="157.00" y="598.09" text-anchor="end">5</text>
<line x1="175" x2="1445" y1="527.50" y2="527.50" stroke="#E5E7EB" stroke-width="2"/>
<text class="tick" x="157.00" y="534.50" text-anchor="end">10</text>
<line x1="175" x2="1445" y1="463.91" y2="463.91" stroke="#E5E7EB" stroke-width="2"/>
<text class="tick" x="157.00" y="470.91" text-anchor="end">20</text>
<line x1="175" x2="1445" y1="379.84" y2="379.84" stroke="#E5E7EB" stroke-width="2"/>
<text class="tick" x="157.00" y="386.84" text-anchor="end">50</text>
<line x1="175" x2="1445" y1="316.25" y2="316.25" stroke="#E5E7EB" stroke-width="2"/>
<text class="tick" x="157.00" y="323.25" text-anchor="end">100</text>
<line x1="175" x2="1445" y1="252.66" y2="252.66" stroke="#E5E7EB" stroke-width="2"/>
<text class="tick" x="157.00" y="259.66" text-anchor="end">200</text>
<line x1="175" x2="1445" y1="168.59" y2="168.59" stroke="#E5E7EB" stroke-width="2"/>
<text class="tick" x="157.00" y="175.59" text-anchor="end">500</text>
<line x1="175" x2="1445" y1="105.00" y2="105.00" stroke="#E5E7EB" stroke-width="2"/>
<text class="tick" x="157.00" y="112.00" text-anchor="end">1000</text>
<line x1="175" x2="1445" y1="950" y2="950" stroke="#2F3A45" stroke-width="3"/>
<line x1="175" x2="175" y1="105" y2="950" stroke="#2F3A45" stroke-width="3"/>
<text class="axis" x="60.00" y="527.50" text-anchor="middle" transform="rotate(-90.00 60.00 527.50)">P95 latency (ms, log10)</text>
<line x1="280.40" x2="280.40" y1="950.00" y2="829.42" stroke="#0072B2" stroke-width="8" stroke-linecap="round" opacity="0.85"/>
<circle cx="280.40" cy="829.42" r="13" fill="#0072B2" stroke="#FFFFFF" stroke-width="4"/>
<rect x="242.95" y="783.92" width="74.90" height="31.00" rx="5" fill="#FFFFFF" stroke="#D7DEE8" stroke-width="1.2" opacity="0.95"/>
<text x="280.40" y="806.98" text-anchor="middle" font-size="21" font-weight="700" fill="#1F2933">0.372</text>
<text class="tick" x="280.40" y="992.00" text-anchor="middle">
<tspan x="280.40" dy="0">Falcon-Precomp.</tspan>
<tspan x="280.40" dy="26">512</tspan>
</text>
<line x1="545.20" x2="545.20" y1="950.00" y2="811.07" stroke="#E69F00" stroke-width="8" stroke-linecap="round" opacity="0.85"/>
<circle cx="545.20" cy="811.07" r="13" fill="#E69F00" stroke="#FFFFFF" stroke-width="4"/>
<rect x="507.75" y="765.57" width="74.90" height="31.00" rx="5" fill="#FFFFFF" stroke="#D7DEE8" stroke-width="1.2" opacity="0.95"/>
<text x="545.20" y="788.63" text-anchor="middle" font-size="21" font-weight="700" fill="#1F2933">0.455</text>
<text class="tick" x="545.20" y="992.00" text-anchor="middle">
<tspan x="545.20" dy="0">Falcon</tspan>
<tspan x="545.20" dy="26">512</tspan>
</text>
<line x1="810.00" x2="810.00" y1="950.00" y2="869.47" stroke="#009E73" stroke-width="8" stroke-linecap="round" opacity="0.85"/>
<circle cx="810.00" cy="869.47" r="13" fill="#009E73" stroke="#FFFFFF" stroke-width="4"/>
<rect x="772.55" y="823.97" width="74.90" height="31.00" rx="5" fill="#FFFFFF" stroke="#D7DEE8" stroke-width="1.2" opacity="0.95"/>
<text x="810.00" y="847.03" text-anchor="middle" font-size="21" font-weight="700" fill="#1F2933">0.241</text>
<text class="tick" x="810.00" y="992.00" text-anchor="middle">
<tspan x="810.00" dy="0">ML-DSA</tspan>
<tspan x="810.00" dy="26">44</tspan>
</text>
<line x1="1074.80" x2="1074.80" y1="950.00" y2="506.44" stroke="#CC79A7" stroke-width="8" stroke-linecap="round" opacity="0.85"/>
<circle cx="1074.80" cy="506.44" r="13" fill="#CC79A7" stroke="#FFFFFF" stroke-width="4"/>
<rect x="1043.44" y="460.94" width="62.72" height="31.00" rx="5" fill="#FFFFFF" stroke="#D7DEE8" stroke-width="1.2" opacity="0.95"/>
<text x="1074.80" y="484.00" text-anchor="middle" font-size="21" font-weight="700" fill="#1F2933">12.6</text>
<text class="tick" x="1074.80" y="992.00" text-anchor="middle">
<tspan x="1074.80" dy="0">SLH-DSA</tspan>
<tspan x="1074.80" dy="26">128f</tspan>
</text>
<line x1="1339.60" x2="1339.60" y1="950.00" y2="227.34" stroke="#D55E00" stroke-width="8" stroke-linecap="round" opacity="0.85"/>
<circle cx="1339.60" cy="227.34" r="13" fill="#D55E00" stroke="#FFFFFF" stroke-width="4"/>
<rect x="1314.33" y="181.84" width="50.54" height="31.00" rx="5" fill="#FFFFFF" stroke="#D7DEE8" stroke-width="1.2" opacity="0.95"/>
<text x="1339.60" y="204.90" text-anchor="middle" font-size="21" font-weight="700" fill="#1F2933">264</text>
<text class="tick" x="1339.60" y="992.00" text-anchor="middle">
<tspan x="1339.60" dy="0">SLH-DSA</tspan>
<tspan x="1339.60" dy="26">128s</tspan>
</text>
<text class="note" x="175.00" y="1074.00" text-anchor="start">Log10 axis used for latency range; marker position shows metric value.</text>
<text class="legend-title" x="1515.00" y="123.00" text-anchor="start">Algorithm</text>
<rect x="1515" y="147" width="26" height="26" rx="3" fill="#0072B2"/>
<text class="legend" x="1557.00" y="168.00" text-anchor="start">Falcon-Precomp. 512</text>
<rect x="1515" y="189" width="26" height="26" rx="3" fill="#E69F00"/>
<text class="legend" x="1557.00" y="210.00" text-anchor="start">Falcon-512</text>
<rect x="1515" y="231" width="26" height="26" rx="3" fill="#009E73"/>
<text class="legend" x="1557.00" y="252.00" text-anchor="start">ML-DSA-44</text>
<rect x="1515" y="273" width="26" height="26" rx="3" fill="#CC79A7"/>
<text class="legend" x="1557.00" y="294.00" text-anchor="start">SLH-DSA-128f</text>
<rect x="1515" y="315" width="26" height="26" rx="3" fill="#D55E00"/>
<text class="legend" x="1557.00" y="336.00" text-anchor="start">SLH-DSA-128s</text>
</svg>
