<svg xmlns="http://www.w3.org/2000/svg" width="6.333in" height="3.733in" viewBox="0 0 1900 1120">
<rect width="1900" height="1120" fill="#FFFFFF"/>
<style>
text { font-family: Arial, Helvetica, sans-serif; fill: #1F2933; }
.subtitle { font-size: 24px; fill: #52616F; }
.axis { font-size: 23px; fill: #2F3A45; }
.tick { font-size: 21px; fill: #425466; }
.label { font-size: 22px; fill: #2F3A45; }
.value { font-size: 21px; fill: #1F2933; font-weight: 700; }
.legend-title { font-size: 24px; font-weight: 700; }
.legend { font-size: 22px; fill: #273444; }
.note { font-size: 19px; fill: #627084; }
</style>
<text class="subtitle" x="70" y="58">Average clean token generation latency; n=100; warm-up=20. Light mode, single metric, consistent palette.</text>
<line x1="175" x2="1445" y1="950.00" y2="950.00" stroke="#E5E7EB" stroke-width="2"/>
<text class="tick" x="157.00" y="957.00" text-anchor="end">0.01</text>
<line x1="175" x2="1445" y1="899.13" y2="899.13" stroke="#E5E7EB" stroke-width="2"/>
<text class="tick" x="157.00" y="906.13" text-anchor="end">0.02</text>
<line x1="175" x2="1445" y1="831.87" y2="831.87" stroke="#E5E7EB" stroke-width="2"/>
<text class="tick" x="157.00" y="838.87" text-anchor="end">0.05</text>
<line x1="175" x2="1445" y1="781.00" y2="781.00" stroke="#E5E7EB" stroke-width="2"/>
<text class="tick" x="157.00" y="788.00" text-anchor="end">0.1</text>
<line x1="175" x2="1445" y1="730.13" y2="730.13" stroke="#E5E7EB" stroke-width="2"/>
<text class="tick" x="157.00" y="737.13" text-anchor="end">0.2</text>
<line x1="175" x2="1445" y1="662.87" y2="662.87" stroke="#E5E7EB" stroke-width="2"/>
<text class="tick" x="157.00" y="669.87" text-anchor="end">0.5</text>
<line x1="175" x2="1445" y1="612.00" y2="612.00" stroke="#E5E7EB" stroke-width="2"/>
<text class="tick" x="157.00" y="619.00" text-anchor="end">1</text>
<line x1="175" x2="1445" y1="561.13" y2="561.13" stroke="#E5E7EB" stroke-width="2"/>
<text class="tick" x="157.00" y="568.13" text-anchor="end">2</text>
<line x1="175" x2="1445" y1="493.87" y2="493.87" stroke="#E5E7EB" stroke-width="2"/>
<text class="tick" x="157.00" y="500.87" text-anchor="end">5</text>
<line x1="175" x2="1445" y1="443.00" y2="443.00" stroke="#E5E7EB" stroke-width="2"/>
<text class="tick" x="157.00" y="450.00" text-anchor="end">10</text>
<line x1="175" x2="1445" y1="392.13" y2="392.13" stroke="#E5E7EB" stroke-width="2"/>
<text class="tick" x="157.00" y="399.13" text-anchor="end">20</text>
<line x1="175" x2="1445" y1="324.87" y2="324.87" stroke="#E5E7EB" stroke-width="2"/>
<text class="tick" x="157.00" y="331.87" text-anchor="end">50</text>
<line x1="175" x2="1445" y1="274.00" y2="274.00" stroke="#E5E7EB" stroke-width="2"/>
<text class="tick" x="157.00" y="281.00" text-anchor="end">100</text>
<line x1="175" x2="1445" y1="223.13" y2="223.13" stroke="#E5E7EB" stroke-width="2"/>
<text class="tick" x="157.00" y="230.13" text-anchor="end">200</text>
<line x1="175" x2="1445" y1="155.87" y2="155.87" stroke="#E5E7EB" stroke-width="2"/>
<text class="tick" x="157.00" y="162.87" text-anchor="end">500</text>
<line x1="175" x2="1445" y1="105.00" y2="105.00" stroke="#E5E7EB" stroke-width="2"/>
<text class="tick" x="157.00" y="112.00" text-anchor="end">1000</text>
<line x1="175" x2="1445" y1="950" y2="950" stroke="#2F3A45" stroke-width="3"/>
<line x1="175" x2="175" y1="105" y2="950" stroke="#2F3A45" stroke-width="3"/>
<text class="axis" x="60.00" y="527.50" text-anchor="middle" transform="rotate(-90.00 60.00 527.50)">Average latency (ms, log10)</text>
<line x1="280.40" x2="280.40" y1="950.00" y2="702.78" stroke="#0072B2" stroke-width="8" stroke-linecap="round" opacity="0.85"/>
<circle cx="280.40" cy="702.78" r="13" fill="#0072B2" stroke="#FFFFFF" stroke-width="4"/>
<rect x="249.04" y="657.28" width="62.72" height="31.00" rx="5" fill="#FFFFFF" stroke="#D7DEE8" stroke-width="1.2" opacity="0.95"/>
<text x="280.40" y="680.34" text-anchor="middle" font-size="21" font-weight="700" fill="#1F2933">0.29</text>
<text class="tick" x="280.40" y="992.00" text-anchor="middle">
<tspan x="280.40" dy="0">Falcon-Precomp.</tspan>
<tspan x="280.40" dy="26">512</tspan>
</text>
<line x1="545.20" x2="545.20" y1="950.00" y2="688.92" stroke="#E69F00" stroke-width="8" stroke-linecap="round" opacity="0.85"/>
<circle cx="545.20" cy="688.92" r="13" fill="#E69F00" stroke="#FFFFFF" stroke-width="4"/>
<rect x="507.75" y="643.42" width="74.90" height="31.00" rx="5" fill="#FFFFFF" stroke="#D7DEE8" stroke-width="1.2" opacity="0.95"/>
<text x="545.20" y="666.48" text-anchor="middle" font-size="21" font-weight="700" fill="#1F2933">0.351</text>
<text class="tick" x="545.20" y="992.00" text-anchor="middle">
<tspan x="545.20" dy="0">Falcon</tspan>
<tspan x="545.20" dy="26">512</tspan>
</text>
<line x1="810.00" x2="810.00" y1="950.00" y2="781.92" stroke="#009E73" stroke-width="8" stroke-linecap="round" opacity="0.85"/>
<circle cx="810.00" cy="781.92" r="13" fill="#009E73" stroke="#FFFFFF" stroke-width="4"/>
<rect x="772.55" y="736.42" width="74.90" height="31.00" rx="5" fill="#FFFFFF" stroke="#D7DEE8" stroke-width="1.2" opacity="0.95"/>
<text x="810.00" y="759.48" text-anchor="middle" font-size="21" font-weight="700" fill="#1F2933">0.099</text>
<text class="tick" x="810.00" y="992.00" text-anchor="middle">
<tspan x="810.00" dy="0">ML-DSA</tspan>
<tspan x="810.00" dy="26">44</tspan>
</text>
<line x1="1074.80" x2="1074.80" y1="950.00" y2="429.22" stroke="#CC79A7" stroke-width="8" stroke-linecap="round" opacity="0.85"/>
<circle cx="1074.80" cy="429.22" r="13" fill="#CC79A7" stroke="#FFFFFF" stroke-width="4"/>
<rect x="1043.44" y="383.72" width="62.72" height="31.00" rx="5" fill="#FFFFFF" stroke="#D7DEE8" stroke-width="1.2" opacity="0.95"/>
<text x="1074.80" y="406.78" text-anchor="middle" font-size="21" font-weight="700" fill="#1F2933">12.1</text>
<text class="tick" x="1074.80" y="992.00" text-anchor="middle">
<tspan x="1074.80" dy="0">SLH-DSA</tspan>
<tspan x="1074.80" dy="26">128f</tspan>
</text>
<line x1="1339.60" x2="1339.60" y1="950.00" y2="207.10" stroke="#D55E00" stroke-width="8" stroke-linecap="round" opacity="0.85"/>
<circle cx="1339.60" cy="207.10" r="13" fill="#D55E00" stroke="#FFFFFF" stroke-width="4"/>
<rect x="1314.33" y="161.60" width="50.54" height="31.00" rx="5" fill="#FFFFFF" stroke="#D7DEE8" stroke-width="1.2" opacity="0.95"/>
<text x="1339.60" y="184.66" text-anchor="middle" font-size="21" font-weight="700" fill="#1F2933">249</text>
<text class="tick" x="1339.60" y="992.00" text-anchor="middle">
<tspan x="1339.60" dy="0">SLH-DSA</tspan>
<tspan x="1339.60" dy="26">128s</tspan>
</text>
<text class="note" x="175.00" y="1074.00" text-anchor="start">Log10 axis used for latency range; marker position shows metric value.</text>
<text class="legend-title" x="1515.00" y="123.00" text-anchor="start">Algorithm</text>
<rect x="1515" y="147" width="26" height="26" rx="3" fill="#0072B2"/>
<text class="legend" x="1557.00" y="168.00" text-anchor="start">Falcon-Precomp. 512</text>
<rect x="1515" y="189" width="26" height="26" rx="3" fill="#E69F00"/>
<text class="legend" x="1557.00" y="210.00" text-anchor="start">Falcon-512</text>
<rect x="1515" y="231" width="26" height="26" rx="3" fill="#009E73"/>
<text class="legend" x="1557.00" y="252.00" text-anchor="start">ML-DSA-44</text>
<rect x="1515" y="273" width="26" height="26" rx="3" fill="#CC79A7"/>
<text class="legend" x="1557.00" y="294.00" text-anchor="start">SLH-DSA-128f</text>
<rect x="1515" y="315" width="26" height="26" rx="3" fill="#D55E00"/>
<text class="legend" x="1557.00" y="336.00" text-anchor="start">SLH-DSA-128s</text>
</svg>
