<svg xmlns="http://www.w3.org/2000/svg" width="6.333in" height="3.733in" viewBox="0 0 1900 1120">
<rect width="1900" height="1120" fill="#FFFFFF"/>
<style>
text { font-family: Arial, Helvetica, sans-serif; fill: #1F2933; }
.subtitle { font-size: 24px; fill: #52616F; }
.axis { font-size: 23px; fill: #2F3A45; }
.tick { font-size: 21px; fill: #425466; }
.label { font-size: 22px; fill: #2F3A45; }
.value { font-size: 21px; fill: #1F2933; font-weight: 700; }
.legend-title { font-size: 24px; font-weight: 700; }
.legend { font-size: 22px; fill: #273444; }
.note { font-size: 19px; fill: #627084; }
</style>
<text class="subtitle" x="70" y="58">Average server-side token generation by concurrency. Stress duration 30 s per VU level.</text>
<line x1="175" x2="1445" y1="950.00" y2="950.00" stroke="#E5E7EB" stroke-width="2"/>
<text class="tick" x="157.00" y="957.00" text-anchor="end">0.1</text>
<line x1="175" x2="1445" y1="899.13" y2="899.13" stroke="#E5E7EB" stroke-width="2"/>
<text class="tick" x="157.00" y="906.13" text-anchor="end">0.2</text>
<line x1="175" x2="1445" y1="831.87" y2="831.87" stroke="#E5E7EB" stroke-width="2"/>
<text class="tick" x="157.00" y="838.87" text-anchor="end">0.5</text>
<line x1="175" x2="1445" y1="781.00" y2="781.00" stroke="#E5E7EB" stroke-width="2"/>
<text class="tick" x="157.00" y="788.00" text-anchor="end">1</text>
<line x1="175" x2="1445" y1="730.13" y2="730.13" stroke="#E5E7EB" stroke-width="2"/>
<text class="tick" x="157.00" y="737.13" text-anchor="end">2</text>
<line x1="175" x2="1445" y1="662.87" y2="662.87" stroke="#E5E7EB" stroke-width="2"/>
<text class="tick" x="157.00" y="669.87" text-anchor="end">5</text>
<line x1="175" x2="1445" y1="612.00" y2="612.00" stroke="#E5E7EB" stroke-width="2"/>
<text class="tick" x="157.00" y="619.00" text-anchor="end">10</text>
<line x1="175" x2="1445" y1="561.13" y2="561.13" stroke="#E5E7EB" stroke-width="2"/>
<text class="tick" x="157.00" y="568.13" text-anchor="end">20</text>
<line x1="175" x2="1445" y1="493.87" y2="493.87" stroke="#E5E7EB" stroke-width="2"/>
<text class="tick" x="157.00" y="500.87" text-anchor="end">50</text>
<line x1="175" x2="1445" y1="443.00" y2="443.00" stroke="#E5E7EB" stroke-width="2"/>
<text class="tick" x="157.00" y="450.00" text-anchor="end">100</text>
<line x1="175" x2="1445" y1="392.13" y2="392.13" stroke="#E5E7EB" stroke-width="2"/>
<text class="tick" x="157.00" y="399.13" text-anchor="end">200</text>
<line x1="175" x2="1445" y1="324.87" y2="324.87" stroke="#E5E7EB" stroke-width="2"/>
<text class="tick" x="157.00" y="331.87" text-anchor="end">500</text>
<line x1="175" x2="1445" y1="274.00" y2="274.00" stroke="#E5E7EB" stroke-width="2"/>
<text class="tick" x="157.00" y="281.00" text-anchor="end">1000</text>
<line x1="175" x2="1445" y1="223.13" y2="223.13" stroke="#E5E7EB" stroke-width="2"/>
<text class="tick" x="157.00" y="230.13" text-anchor="end">2000</text>
<line x1="175" x2="1445" y1="155.87" y2="155.87" stroke="#E5E7EB" stroke-width="2"/>
<text class="tick" x="157.00" y="162.87" text-anchor="end">5000</text>
<line x1="175" x2="1445" y1="105.00" y2="105.00" stroke="#E5E7EB" stroke-width="2"/>
<text class="tick" x="157.00" y="112.00" text-anchor="end">10000</text>
<line x1="175" x2="1445" y1="950" y2="950" stroke="#2F3A45" stroke-width="3"/>
<line x1="175" x2="175" y1="105" y2="950" stroke="#2F3A45" stroke-width="3"/>
<text class="axis" x="60.00" y="527.50" text-anchor="middle" transform="rotate(-90.00 60.00 527.50)">Average latency (ms, log10)</text>
<line x1="175.00" x2="175.00" y1="105" y2="950" stroke="#E5E7EB" stroke-width="1.5"/>
<text class="tick" x="175.00" y="995.00" text-anchor="middle">10</text>
<line x1="810.00" x2="810.00" y1="105" y2="950" stroke="#E5E7EB" stroke-width="1.5"/>
<text class="tick" x="810.00" y="995.00" text-anchor="middle">30</text>
<line x1="1445.00" x2="1445.00" y1="105" y2="950" stroke="#E5E7EB" stroke-width="1.5"/>
<text class="tick" x="1445.00" y="995.00" text-anchor="middle">50</text>
<text class="axis" x="810.00" y="1048.00" text-anchor="middle">Concurrent virtual users (VUs)</text>
<path d="M 175.00 845.08 L 810.00 845.54 L 1445.00 845.88" fill="none" stroke="#0072B2" stroke-width="6" stroke-linejoin="round" stroke-linecap="round"/>
<circle cx="175.00" cy="845.08" r="10" fill="#0072B2" stroke="#FFFFFF" stroke-width="4"/>
<circle cx="810.00" cy="845.54" r="10" fill="#0072B2" stroke="#FFFFFF" stroke-width="4"/>
<circle cx="1445.00" cy="845.88" r="10" fill="#0072B2" stroke="#FFFFFF" stroke-width="4"/>
<path d="M 175.00 828.64 L 810.00 831.30 L 1445.00 830.24" fill="none" stroke="#E69F00" stroke-width="6" stroke-linejoin="round" stroke-linecap="round"/>
<circle cx="175.00" cy="828.64" r="10" fill="#E69F00" stroke="#FFFFFF" stroke-width="4"/>
<circle cx="810.00" cy="831.30" r="10" fill="#E69F00" stroke="#FFFFFF" stroke-width="4"/>
<circle cx="1445.00" cy="830.24" r="10" fill="#E69F00" stroke="#FFFFFF" stroke-width="4"/>
<path d="M 175.00 901.24 L 810.00 888.83 L 1445.00 878.32" fill="none" stroke="#009E73" stroke-width="6" stroke-linejoin="round" stroke-linecap="round"/>
<circle cx="175.00" cy="901.24" r="10" fill="#009E73" stroke="#FFFFFF" stroke-width="4"/>
<circle cx="810.00" cy="888.83" r="10" fill="#009E73" stroke="#FFFFFF" stroke-width="4"/>
<circle cx="1445.00" cy="878.32" r="10" fill="#009E73" stroke="#FFFFFF" stroke-width="4"/>
<path d="M 175.00 559.76 L 810.00 526.86 L 1445.00 564.27" fill="none" stroke="#CC79A7" stroke-width="6" stroke-linejoin="round" stroke-linecap="round"/>
<circle cx="175.00" cy="559.76" r="10" fill="#CC79A7" stroke="#FFFFFF" stroke-width="4"/>
<circle cx="810.00" cy="526.86" r="10" fill="#CC79A7" stroke="#FFFFFF" stroke-width="4"/>
<circle cx="1445.00" cy="564.27" r="10" fill="#CC79A7" stroke="#FFFFFF" stroke-width="4"/>
<path d="M 175.00 291.60 L 810.00 197.31 L 1445.00 167.68" fill="none" stroke="#D55E00" stroke-width="6" stroke-linejoin="round" stroke-linecap="round"/>
<circle cx="175.00" cy="291.60" r="10" fill="#D55E00" stroke="#FFFFFF" stroke-width="4"/>
<circle cx="810.00" cy="197.31" r="10" fill="#D55E00" stroke="#FFFFFF" stroke-width="4"/>
<circle cx="1445.00" cy="167.68" r="10" fill="#D55E00" stroke="#FFFFFF" stroke-width="4"/>
<rect x="179.00" y="247.60" width="45.32" height="28.00" rx="5" fill="#FFFFFF" stroke="#D7DEE8" stroke-width="1.2" opacity="0.95"/>
<text x="201.66" y="268.08" text-anchor="middle" font-size="18" font-weight="700" fill="#1F2933">787</text>
<rect x="179.00" y="515.76" width="55.76" height="28.00" rx="5" fill="#FFFFFF" stroke="#D7DEE8" stroke-width="1.2" opacity="0.95"/>
<text x="206.88" y="536.24" text-anchor="middle" font-size="18" font-weight="700" fill="#1F2933">20.4</text>
<rect x="179.00" y="784.64" width="66.20" height="28.00" rx="5" fill="#FFFFFF" stroke="#D7DEE8" stroke-width="1.2" opacity="0.95"/>
<text x="212.10" y="805.12" text-anchor="middle" font-size="18" font-weight="700" fill="#1F2933">0.523</text>
<rect x="179.00" y="861.08" width="66.20" height="28.00" rx="5" fill="#FFFFFF" stroke="#D7DEE8" stroke-width="1.2" opacity="0.95"/>
<text x="212.10" y="881.56" text-anchor="middle" font-size="18" font-weight="700" fill="#1F2933">0.418</text>
<rect x="179.00" y="917.24" width="66.20" height="28.00" rx="5" fill="#FFFFFF" stroke="#D7DEE8" stroke-width="1.2" opacity="0.95"/>
<text x="212.10" y="937.72" text-anchor="middle" font-size="18" font-weight="700" fill="#1F2933">0.194</text>
<rect x="782.12" y="153.31" width="55.76" height="28.00" rx="5" fill="#FFFFFF" stroke="#D7DEE8" stroke-width="1.2" opacity="0.95"/>
<text x="810.00" y="173.79" text-anchor="middle" font-size="18" font-weight="700" fill="#1F2933">2843</text>
<rect x="782.12" y="482.86" width="55.76" height="28.00" rx="5" fill="#FFFFFF" stroke="#D7DEE8" stroke-width="1.2" opacity="0.95"/>
<text x="810.00" y="503.34" text-anchor="middle" font-size="18" font-weight="700" fill="#1F2933">31.9</text>
<rect x="776.90" y="787.30" width="66.20" height="28.00" rx="5" fill="#FFFFFF" stroke="#D7DEE8" stroke-width="1.2" opacity="0.95"/>
<text x="810.00" y="807.78" text-anchor="middle" font-size="18" font-weight="700" fill="#1F2933">0.504</text>
<rect x="776.90" y="861.54" width="66.20" height="28.00" rx="5" fill="#FFFFFF" stroke="#D7DEE8" stroke-width="1.2" opacity="0.95"/>
<text x="810.00" y="882.02" text-anchor="middle" font-size="18" font-weight="700" fill="#1F2933">0.415</text>
<rect x="782.12" y="904.83" width="55.76" height="28.00" rx="5" fill="#FFFFFF" stroke="#D7DEE8" stroke-width="1.2" opacity="0.95"/>
<text x="810.00" y="925.31" text-anchor="middle" font-size="18" font-weight="700" fill="#1F2933">0.23</text>
<rect x="1385.24" y="123.68" width="55.76" height="28.00" rx="5" fill="#FFFFFF" stroke="#D7DEE8" stroke-width="1.2" opacity="0.95"/>
<text x="1413.12" y="144.16" text-anchor="middle" font-size="18" font-weight="700" fill="#1F2933">4257</text>
<rect x="1385.24" y="520.27" width="55.76" height="28.00" rx="5" fill="#FFFFFF" stroke="#D7DEE8" stroke-width="1.2" opacity="0.95"/>
<text x="1413.12" y="540.75" text-anchor="middle" font-size="18" font-weight="700" fill="#1F2933">19.2</text>
<rect x="1374.80" y="786.24" width="66.20" height="28.00" rx="5" fill="#FFFFFF" stroke="#D7DEE8" stroke-width="1.2" opacity="0.95"/>
<text x="1407.90" y="806.72" text-anchor="middle" font-size="18" font-weight="700" fill="#1F2933">0.511</text>
<rect x="1374.80" y="861.88" width="66.20" height="28.00" rx="5" fill="#FFFFFF" stroke="#D7DEE8" stroke-width="1.2" opacity="0.95"/>
<text x="1407.90" y="882.36" text-anchor="middle" font-size="18" font-weight="700" fill="#1F2933">0.413</text>
<rect x="1374.80" y="894.32" width="66.20" height="28.00" rx="5" fill="#FFFFFF" stroke="#D7DEE8" stroke-width="1.2" opacity="0.95"/>
<text x="1407.90" y="914.80" text-anchor="middle" font-size="18" font-weight="700" fill="#1F2933">0.266</text>
<text class="note" x="175.00" y="1086.00" text-anchor="start">Log10 axis used for latency range.</text>
<text class="legend-title" x="1515.00" y="123.00" text-anchor="start">Algorithm</text>
<rect x="1515" y="147" width="26" height="26" rx="3" fill="#0072B2"/>
<text class="legend" x="1557.00" y="168.00" text-anchor="start">Falcon-Precomp. 512</text>
<rect x="1515" y="189" width="26" height="26" rx="3" fill="#E69F00"/>
<text class="legend" x="1557.00" y="210.00" text-anchor="start">Falcon-512</text>
<rect x="1515" y="231" width="26" height="26" rx="3" fill="#009E73"/>
<text class="legend" x="1557.00" y="252.00" text-anchor="start">ML-DSA-44</text>
<rect x="1515" y="273" width="26" height="26" rx="3" fill="#CC79A7"/>
<text class="legend" x="1557.00" y="294.00" text-anchor="start">SLH-DSA-128f</text>
<rect x="1515" y="315" width="26" height="26" rx="3" fill="#D55E00"/>
<text class="legend" x="1557.00" y="336.00" text-anchor="start">SLH-DSA-128s</text>
</svg>
