<svg xmlns="http://www.w3.org/2000/svg" width="6.333in" height="3.733in" viewBox="0 0 1900 1120">
<rect width="1900" height="1120" fill="#FFFFFF"/>
<style>
text { font-family: Arial, Helvetica, sans-serif; fill: #1F2933; }
.subtitle { font-size: 24px; fill: #52616F; }
.axis { font-size: 23px; fill: #2F3A45; }
.tick { font-size: 21px; fill: #425466; }
.label { font-size: 22px; fill: #2F3A45; }
.value { font-size: 21px; fill: #1F2933; font-weight: 700; }
.legend-title { font-size: 24px; font-weight: 700; }
.legend { font-size: 22px; fill: #273444; }
.note { font-size: 19px; fill: #627084; }
</style>
<text class="subtitle" x="70" y="58">Successful request throughput by concurrency. Stress duration 30 s per VU level.</text>
<line x1="175" x2="1445" y1="950.00" y2="950.00" stroke="#E5E7EB" stroke-width="2"/>
<text class="tick" x="157.00" y="957.00" text-anchor="end">0</text>
<line x1="175" x2="1445" y1="668.33" y2="668.33" stroke="#E5E7EB" stroke-width="2"/>
<text class="tick" x="157.00" y="675.33" text-anchor="end">10</text>
<line x1="175" x2="1445" y1="386.67" y2="386.67" stroke="#E5E7EB" stroke-width="2"/>
<text class="tick" x="157.00" y="393.67" text-anchor="end">20</text>
<line x1="175" x2="1445" y1="105.00" y2="105.00" stroke="#E5E7EB" stroke-width="2"/>
<text class="tick" x="157.00" y="112.00" text-anchor="end">30</text>
<line x1="175" x2="1445" y1="950" y2="950" stroke="#2F3A45" stroke-width="3"/>
<line x1="175" x2="175" y1="105" y2="950" stroke="#2F3A45" stroke-width="3"/>
<text class="axis" x="60.00" y="527.50" text-anchor="middle" transform="rotate(-90.00 60.00 527.50)">Successful requests/s</text>
<line x1="175.00" x2="175.00" y1="105" y2="950" stroke="#E5E7EB" stroke-width="1.5"/>
<text class="tick" x="175.00" y="995.00" text-anchor="middle">10</text>
<line x1="810.00" x2="810.00" y1="105" y2="950" stroke="#E5E7EB" stroke-width="1.5"/>
<text class="tick" x="810.00" y="995.00" text-anchor="middle">30</text>
<line x1="1445.00" x2="1445.00" y1="105" y2="950" stroke="#E5E7EB" stroke-width="1.5"/>
<text class="tick" x="1445.00" y="995.00" text-anchor="middle">50</text>
<text class="axis" x="810.00" y="1048.00" text-anchor="middle">Concurrent virtual users (VUs)</text>
<path d="M 175.00 194.29 L 810.00 321.04 L 1445.00 306.96" fill="none" stroke="#0072B2" stroke-width="6" stroke-linejoin="round" stroke-linecap="round"/>
<circle cx="175.00" cy="194.29" r="10" fill="#0072B2" stroke="#FFFFFF" stroke-width="4"/>
<circle cx="810.00" cy="321.04" r="10" fill="#0072B2" stroke="#FFFFFF" stroke-width="4"/>
<circle cx="1445.00" cy="306.96" r="10" fill="#0072B2" stroke="#FFFFFF" stroke-width="4"/>
<path d="M 175.00 230.90 L 810.00 170.63 L 1445.00 338.78" fill="none" stroke="#E69F00" stroke-width="6" stroke-linejoin="round" stroke-linecap="round"/>
<circle cx="175.00" cy="230.90" r="10" fill="#E69F00" stroke="#FFFFFF" stroke-width="4"/>
<circle cx="810.00" cy="170.63" r="10" fill="#E69F00" stroke="#FFFFFF" stroke-width="4"/>
<circle cx="1445.00" cy="338.78" r="10" fill="#E69F00" stroke="#FFFFFF" stroke-width="4"/>
<path d="M 175.00 214.85 L 810.00 341.60 L 1445.00 349.21" fill="none" stroke="#009E73" stroke-width="6" stroke-linejoin="round" stroke-linecap="round"/>
<circle cx="175.00" cy="214.85" r="10" fill="#009E73" stroke="#FFFFFF" stroke-width="4"/>
<circle cx="810.00" cy="341.60" r="10" fill="#009E73" stroke="#FFFFFF" stroke-width="4"/>
<circle cx="1445.00" cy="349.21" r="10" fill="#009E73" stroke="#FFFFFF" stroke-width="4"/>
<path d="M 175.00 642.98 L 810.00 628.90 L 1445.00 579.05" fill="none" stroke="#CC79A7" stroke-width="6" stroke-linejoin="round" stroke-linecap="round"/>
<circle cx="175.00" cy="642.98" r="10" fill="#CC79A7" stroke="#FFFFFF" stroke-width="4"/>
<circle cx="810.00" cy="628.90" r="10" fill="#CC79A7" stroke="#FFFFFF" stroke-width="4"/>
<circle cx="1445.00" cy="579.05" r="10" fill="#CC79A7" stroke="#FFFFFF" stroke-width="4"/>
<path d="M 175.00 902.96 L 810.00 893.67 L 1445.00 881.55" fill="none" stroke="#D55E00" stroke-width="6" stroke-linejoin="round" stroke-linecap="round"/>
<circle cx="175.00" cy="902.96" r="10" fill="#D55E00" stroke="#FFFFFF" stroke-width="4"/>
<circle cx="810.00" cy="893.67" r="10" fill="#D55E00" stroke="#FFFFFF" stroke-width="4"/>
<circle cx="1445.00" cy="881.55" r="10" fill="#D55E00" stroke="#FFFFFF" stroke-width="4"/>
<rect x="179.00" y="150.29" width="55.76" height="28.00" rx="5" fill="#FFFFFF" stroke="#D7DEE8" stroke-width="1.2" opacity="0.95"/>
<text x="206.88" y="170.77" text-anchor="middle" font-size="18" font-weight="700" fill="#1F2933">26.8</text>
<rect x="179.00" y="230.85" width="55.76" height="28.00" rx="5" fill="#FFFFFF" stroke="#D7DEE8" stroke-width="1.2" opacity="0.95"/>
<text x="206.88" y="251.33" text-anchor="middle" font-size="18" font-weight="700" fill="#1F2933">26.1</text>
<rect x="179.00" y="186.90" width="55.76" height="28.00" rx="5" fill="#FFFFFF" stroke="#D7DEE8" stroke-width="1.2" opacity="0.95"/>
<text x="206.88" y="207.38" text-anchor="middle" font-size="18" font-weight="700" fill="#1F2933">25.5</text>
<rect x="179.00" y="598.98" width="55.76" height="28.00" rx="5" fill="#FFFFFF" stroke="#D7DEE8" stroke-width="1.2" opacity="0.95"/>
<text x="206.88" y="619.46" text-anchor="middle" font-size="18" font-weight="700" fill="#1F2933">10.9</text>
<rect x="179.00" y="858.96" width="55.76" height="28.00" rx="5" fill="#FFFFFF" stroke="#D7DEE8" stroke-width="1.2" opacity="0.95"/>
<text x="206.88" y="879.44" text-anchor="middle" font-size="18" font-weight="700" fill="#1F2933">1.67</text>
<rect x="782.12" y="126.63" width="55.76" height="28.00" rx="5" fill="#FFFFFF" stroke="#D7DEE8" stroke-width="1.2" opacity="0.95"/>
<text x="810.00" y="147.11" text-anchor="middle" font-size="18" font-weight="700" fill="#1F2933">27.7</text>
<rect x="782.12" y="277.04" width="55.76" height="28.00" rx="5" fill="#FFFFFF" stroke="#D7DEE8" stroke-width="1.2" opacity="0.95"/>
<text x="810.00" y="297.52" text-anchor="middle" font-size="18" font-weight="700" fill="#1F2933">22.3</text>
<rect x="782.12" y="357.60" width="55.76" height="28.00" rx="5" fill="#FFFFFF" stroke="#D7DEE8" stroke-width="1.2" opacity="0.95"/>
<text x="810.00" y="378.08" text-anchor="middle" font-size="18" font-weight="700" fill="#1F2933">21.6</text>
<rect x="782.12" y="584.90" width="55.76" height="28.00" rx="5" fill="#FFFFFF" stroke="#D7DEE8" stroke-width="1.2" opacity="0.95"/>
<text x="810.00" y="605.38" text-anchor="middle" font-size="18" font-weight="700" fill="#1F2933">11.4</text>
<rect x="797.78" y="849.67" width="24.44" height="28.00" rx="5" fill="#FFFFFF" stroke="#D7DEE8" stroke-width="1.2" opacity="0.95"/>
<text x="810.00" y="870.15" text-anchor="middle" font-size="18" font-weight="700" fill="#1F2933">2</text>
<rect x="1385.24" y="262.96" width="55.76" height="28.00" rx="5" fill="#FFFFFF" stroke="#D7DEE8" stroke-width="1.2" opacity="0.95"/>
<text x="1413.12" y="283.44" text-anchor="middle" font-size="18" font-weight="700" fill="#1F2933">22.8</text>
<rect x="1385.24" y="294.78" width="55.76" height="28.00" rx="5" fill="#FFFFFF" stroke="#D7DEE8" stroke-width="1.2" opacity="0.95"/>
<text x="1413.12" y="315.26" text-anchor="middle" font-size="18" font-weight="700" fill="#1F2933">21.7</text>
<rect x="1385.24" y="365.21" width="55.76" height="28.00" rx="5" fill="#FFFFFF" stroke="#D7DEE8" stroke-width="1.2" opacity="0.95"/>
<text x="1413.12" y="385.69" text-anchor="middle" font-size="18" font-weight="700" fill="#1F2933">21.3</text>
<rect x="1385.24" y="535.05" width="55.76" height="28.00" rx="5" fill="#FFFFFF" stroke="#D7DEE8" stroke-width="1.2" opacity="0.95"/>
<text x="1413.12" y="555.53" text-anchor="middle" font-size="18" font-weight="700" fill="#1F2933">13.2</text>
<rect x="1385.24" y="837.55" width="55.76" height="28.00" rx="5" fill="#FFFFFF" stroke="#D7DEE8" stroke-width="1.2" opacity="0.95"/>
<text x="1413.12" y="858.03" text-anchor="middle" font-size="18" font-weight="700" fill="#1F2933">2.43</text>
<text class="legend-title" x="1515.00" y="123.00" text-anchor="start">Algorithm</text>
<rect x="1515" y="147" width="26" height="26" rx="3" fill="#0072B2"/>
<text class="legend" x="1557.00" y="168.00" text-anchor="start">Falcon-Precomp. 512</text>
<rect x="1515" y="189" width="26" height="26" rx="3" fill="#E69F00"/>
<text class="legend" x="1557.00" y="210.00" text-anchor="start">Falcon-512</text>
<rect x="1515" y="231" width="26" height="26" rx="3" fill="#009E73"/>
<text class="legend" x="1557.00" y="252.00" text-anchor="start">ML-DSA-44</text>
<rect x="1515" y="273" width="26" height="26" rx="3" fill="#CC79A7"/>
<text class="legend" x="1557.00" y="294.00" text-anchor="start">SLH-DSA-128f</text>
<rect x="1515" y="315" width="26" height="26" rx="3" fill="#D55E00"/>
<text class="legend" x="1557.00" y="336.00" text-anchor="start">SLH-DSA-128s</text>
</svg>
